<?xml version="1.0" encoding="UTF-8"?>
<svg width="70px" height="80px" viewBox="0 0 70 80" version="1.1" xmlns="http://www.w3.org/2000/svg" xmlns:xlink="http://www.w3.org/1999/xlink">
    <!-- Generator: Sketch 48.2 (47327) - http://www.bohemiancoding.com/sketch -->
    <title>flowerrecipe</title>
    <desc>Created with Sketch.</desc>
    <defs></defs>
    <g id="Artboard" stroke="none" stroke-width="1" fill="none" fill-rule="evenodd" transform="translate(-65.000000, -589.000000)">
        <g id="flowerrecipe" transform="translate(65.000000, 589.000000)" fill-rule="nonzero">
            <path d="M16.202,28.307 C16.202,30.862 17.895,33.123 20.579,34.292 C20.312,34.979 20.13,35.687 20.048,36.4 C19.812,38.472 20.411,40.341 21.735,41.665 C22.87,42.8 24.406,43.402 26.127,43.402 C26.413,43.402 26.705,43.385 27.001,43.352 C27.739,43.268 28.471,43.079 29.18,42.797 C30.354,45.462 32.608,47.141 35.151,47.141 C37.71,47.141 39.973,45.442 41.141,42.751 C42.125,43.131 43.133,43.334 44.109,43.334 C45.779,43.334 47.348,42.769 48.509,41.607 C49.833,40.283 50.432,38.414 50.196,36.342 C50.112,35.604 49.923,34.872 49.641,34.163 C52.306,32.989 53.985,30.734 53.985,28.191 C53.985,25.636 52.292,23.376 49.608,22.206 C49.875,21.519 50.057,20.811 50.138,20.097 C50.374,18.025 49.775,16.156 48.451,14.832 C47.127,13.507 45.258,12.907 43.186,13.145 C42.448,13.229 41.716,13.418 41.007,13.7 C39.833,11.035 37.578,9.356 35.035,9.356 C32.481,9.356 30.22,11.049 29.05,13.733 C28.363,13.466 27.655,13.284 26.942,13.203 C24.872,12.969 23.001,13.566 21.677,14.89 C20.353,16.214 19.754,18.083 19.99,20.155 C20.074,20.893 20.263,21.625 20.545,22.334 C17.881,23.509 16.202,25.764 16.202,28.307 Z M26.773,41.366 C25.318,41.533 24.032,41.136 23.148,40.252 C22.264,39.368 21.869,38.081 22.035,36.628 C22.211,35.089 22.984,33.565 24.213,32.336 C25.611,30.938 28.577,30.039 31.002,29.627 C31.441,30.928 32.472,31.942 33.782,32.362 C33.371,34.806 32.473,37.781 31.066,39.188 C29.837,40.417 28.312,41.19 26.773,41.366 Z M35.094,25.915 C36.382,25.915 37.429,26.963 37.429,28.251 C37.429,29.539 36.381,30.586 35.094,30.586 C33.806,30.586 32.758,29.538 32.758,28.251 C32.758,26.962 33.806,25.915 35.094,25.915 Z M35.151,45.142 C33.38,45.142 31.788,43.866 30.95,41.853 C31.49,41.491 32.005,41.077 32.48,40.602 C33.78,39.302 34.61,37.282 35.132,35.459 C35.655,37.261 36.481,39.26 37.765,40.544 C38.263,41.042 38.8,41.47 39.358,41.836 C38.522,43.859 36.928,45.142 35.151,45.142 Z M47.096,40.194 C45.207,42.083 41.655,41.606 39.179,39.13 C37.782,37.733 36.882,34.762 36.47,32.341 C37.77,31.902 38.784,30.872 39.204,29.563 C41.642,29.973 44.625,30.873 46.031,32.278 C47.26,33.507 48.033,35.031 48.209,36.57 C48.375,38.023 47.979,39.311 47.096,40.194 Z M51.986,28.192 C51.986,29.963 50.71,31.555 48.697,32.393 C48.335,31.853 47.921,31.338 47.446,30.863 C46.147,29.564 44.123,28.734 42.302,28.212 C44.107,27.689 46.103,26.863 47.388,25.578 C47.881,25.085 48.31,24.548 48.681,23.985 C50.704,24.822 51.986,26.416 51.986,28.192 Z M43.414,15.134 C44.862,14.966 46.154,15.364 47.038,16.248 C47.922,17.132 48.317,18.419 48.152,19.873 C47.976,21.412 47.203,22.936 45.974,24.165 C44.576,25.563 41.612,26.462 39.185,26.874 C38.746,25.574 37.716,24.559 36.407,24.14 C36.817,21.701 37.716,18.72 39.123,17.313 C40.351,16.083 41.875,15.31 43.414,15.134 Z M35.036,11.358 C36.807,11.358 38.399,12.634 39.237,14.647 C38.698,15.009 38.182,15.423 37.707,15.898 C36.408,17.197 35.578,19.219 35.056,21.04 C34.533,19.236 33.707,17.241 32.422,15.956 C31.929,15.462 31.391,15.034 30.829,14.663 C31.666,12.64 33.26,11.358 35.036,11.358 Z M23.092,16.306 C23.976,15.422 25.262,15.027 26.717,15.192 C28.256,15.368 29.78,16.141 31.009,17.37 C32.407,18.769 33.306,21.732 33.718,24.159 C32.418,24.598 31.403,25.628 30.983,26.937 C28.543,26.527 25.564,25.628 24.156,24.221 C22.927,22.992 22.154,21.468 21.978,19.929 C21.812,18.477 22.208,17.189 23.092,16.306 Z M21.491,24.106 C21.853,24.645 22.267,25.161 22.742,25.636 C24.041,26.935 26.063,27.765 27.885,28.287 C26.082,28.81 24.084,29.636 22.8,30.921 C22.307,31.414 21.879,31.951 21.507,32.514 C19.484,31.678 18.202,30.083 18.202,28.307 C18.202,26.536 19.477,24.944 21.491,24.106 Z" id="Shape" fill="#ECCFC1"></path>
            <path d="M6.266,80 L56.671,80 C59.822,80 62.385,77.437 62.385,74.286 L62.385,55 L66.695,55 C68.351,55 69.697,53.653 69.697,51.998 L69.697,44.503 C69.697,43.731 69.396,43.033 68.916,42.501 C69.397,41.969 69.697,41.271 69.697,40.499 L69.697,33.004 C69.697,32.232 69.396,31.534 68.916,31.002 C69.397,30.47 69.697,29.772 69.697,29 L69.697,21.505 C69.697,20.733 69.396,20.035 68.916,19.503 C69.397,18.971 69.697,18.273 69.697,17.501 L69.697,10.006 C69.697,8.35 68.35,7.004 66.695,7.004 L62.385,7.004 L62.385,5.719 C62.385,2.568 59.822,0.005 56.671,0.005 L6.266,0.005 C3.115,0.005 0.552,2.568 0.552,5.719 L0.552,74.29 C0.552,77.437 3.115,80 6.266,80 Z M67.698,21.502 L67.698,28.997 C67.698,29.55 67.248,29.999 66.696,29.999 L62.386,29.999 L62.386,20.499 L66.696,20.499 C67.248,20.5 67.698,20.949 67.698,21.502 Z M67.698,33.002 L67.698,40.497 C67.698,41.05 67.248,41.499 66.696,41.499 L62.386,41.499 L62.386,32 L66.696,32 C67.248,32 67.698,32.449 67.698,33.002 Z M67.698,51.997 C67.698,52.55 67.248,52.999 66.696,52.999 L62.386,52.999 L62.386,43.499 L66.696,43.499 C67.249,43.499 67.698,43.949 67.698,44.501 L67.698,51.997 Z M66.695,9 C67.248,9 67.697,9.45 67.697,10.002 L67.697,17.497 C67.697,18.05 67.247,18.499 66.695,18.499 L62.385,18.499 L62.385,9 L66.695,9 Z M60.385,5.714 L60.385,74.285 C60.385,76.333 58.719,77.999 56.671,77.999 L10.052,77.999 L10.052,2 L56.671,2 C58.719,2 60.385,3.666 60.385,5.714 Z M2.552,5.714 C2.552,3.666 4.218,2 6.266,2 L8.052,2 L8.052,78 L6.266,78 C4.218,78 2.552,76.334 2.552,74.286 L2.552,5.714 Z" id="Shape" fill="#CCC6BE"></path>
            <path d="M51.094,52.833 L19.094,52.833 C18.542,52.833 18.094,53.281 18.094,53.833 L18.094,69 C18.094,69.552 18.542,70 19.094,70 L51.094,70 C51.646,70 52.094,69.552 52.094,69 L52.094,53.833 C52.094,53.28 51.646,52.833 51.094,52.833 Z M50.094,68 L20.094,68 L20.094,54.833 L50.094,54.833 L50.094,68 Z" id="Shape" fill="#E0AFA1"></path>
            <path d="M27.094,60 L43.094,60 C43.646,60 44.094,59.552 44.094,59 C44.094,58.448 43.646,58 43.094,58 L27.094,58 C26.542,58 26.094,58.448 26.094,59 C26.094,59.552 26.542,60 27.094,60 Z" id="Shape" fill="#E0AFA1"></path>
            <path d="M27.094,64.666 L43.094,64.666 C43.646,64.666 44.094,64.218 44.094,63.666 C44.094,63.114 43.646,62.666 43.094,62.666 L27.094,62.666 C26.542,62.666 26.094,63.114 26.094,63.666 C26.094,64.218 26.542,64.666 27.094,64.666 Z" id="Shape" fill="#E0AFA1"></path>
        </g>
    </g>
</svg>