<?xml version="1.0" encoding="UTF-8"?>
<svg width="119px" height="45px" viewBox="0 0 119 45" version="1.1" xmlns="http://www.w3.org/2000/svg" xmlns:xlink="http://www.w3.org/1999/xlink" style="background: #FFFFFF;">
    <!-- Generator: Sketch 48.2 (47327) - http://www.bohemiancoding.com/sketch -->
    <title>logo</title>
    <desc>Created with Sketch.</desc>
    <defs></defs>
    <g id="Page-1" stroke="none" stroke-width="1" fill="none" fill-rule="evenodd">
        <g id="logo">
            <g id="Magali-logo">
                <g transform="translate(8.000000, -2.000000)">
                    <text id="Magal" font-family="Avenir-Heavy, Avenir" font-size="32" font-weight="600">
                        <tspan x="0" y="32" fill="#CCC6BE">M</tspan>
                        <tspan x="29.632" y="32" fill="#ECCFC1">a</tspan>
                        <tspan x="46.816" y="32" fill="#E0AFA1">g</tspan>
                        <tspan x="66.976" y="32" fill="#5D8FCE">a</tspan>
                        <tspan x="84.16" y="32" fill="#BCCDBA">l</tspan>
                    </text>
                    <g id="mixer" transform="translate(96.960316, 20.070932) scale(-1, 1) rotate(36.000000) translate(-96.960316, -20.070932) translate(86.460316, 9.070932)" fill="#CCC6BE" fill-rule="nonzero">
                        <g id="Group">
                            <path d="M19.8934946,18.6584041 L12.4861497,10.6865704 C12.2542365,10.4372449 11.8649705,10.420792 11.6085958,10.6308835 C11.6071846,9.66066572 11.1958092,8.48693761 10.7585611,7.51570735 C9.94004394,5.69803611 8.60854234,3.68292947 7.28315611,2.25709155 C5.92954515,0.800119592 4.72623087,0.0918833951 3.60500351,0.0918833951 C2.76766988,0.0918833951 1.99360669,0.487260428 1.23812478,1.30028926 C-0.49675523,3.16731935 -0.206040522,5.29557165 2.12696854,7.80603862 C4.20313256,10.0403492 7.76368212,12.451086 9.90452782,12.4581734 C9.79892029,12.5887845 9.73870754,12.7520484 9.73894274,12.9269559 C9.73894274,13.1185695 9.80832853,13.2987925 9.93416378,13.4337067 L17.3410383,21.4050342 C17.4668735,21.5404546 17.6341051,21.6153788 17.8121561,21.6153788 C17.9902071,21.6153788 18.1574386,21.5407078 18.283509,21.4052873 L19.8932594,19.6729183 C20.0195651,19.5374979 20.0889509,19.3570217 20.0887157,19.165155 C20.0887157,18.9732883 20.0193299,18.7933183 19.8934946,18.6584041 Z M5.75102374,3.90593022 C7.03783618,5.29076232 8.39262317,7.18057342 9.28664146,8.83827137 C9.61804682,9.45259919 9.85489934,9.97479049 10.0174267,10.4121858 L1.98067036,1.76324995 C2.71615975,1.55898025 3.8562036,1.86703009 5.75102374,3.90593022 Z M1.54671515,2.19102663 L9.6869622,10.9510832 C8.00900206,10.2942308 5.39209927,8.43757876 3.46599672,6.36476025 C1.53777732,4.28991675 1.30045439,3.01974904 1.54671515,2.19102663 Z M6.86754698,2.70435866 C8.14942009,4.0838752 9.43764376,6.03317003 10.2293474,7.79161065 C10.904624,9.29110716 11.1544129,10.5053348 10.9462555,11.1819307 C10.9173252,11.1882588 10.8872188,11.1930681 10.855466,11.1966118 C10.7348053,10.5022974 10.3824666,9.60978814 9.79515699,8.52060288 C8.87738289,6.81911477 7.48707978,4.87943859 6.16663287,3.45866311 C4.70835521,1.88930485 3.49445666,1.10614445 2.45296416,1.07526353 C2.82999949,0.842644138 3.21150375,0.724689146 3.60500351,0.724689146 C4.5491207,0.724689146 5.64682745,1.39065392 6.86754698,2.70435866 Z M0.873320156,2.93267497 C0.939883476,4.04312251 1.65843803,5.31480894 3.05015238,6.81228047 C4.8125515,8.70892587 8.20916243,11.4084752 10.2735661,11.7858806 C10.1646657,11.8096741 10.0480035,11.8258739 9.91464168,11.8258739 C8.16870698,11.8258739 4.79279419,9.77988632 2.54281288,7.3585184 C0.676923084,5.35100543 0.48358369,3.9590859 0.873320156,2.93267497 Z M10.3269579,12.9264496 C10.3269579,12.9105029 10.3309564,12.8872157 10.3500081,12.8667128 L11.9602289,11.1340906 C11.9790454,11.1138408 12.0004492,11.1095378 12.0150319,11.1095378 C12.0298499,11.1095378 12.0514889,11.1138408 12.0705406,11.1343438 L12.3676058,11.4540372 L10.6470734,13.30588 L10.3497729,12.9859334 C10.3309564,12.9656836 10.3269579,12.9423963 10.3269579,12.9264496 Z M19.4778855,19.225145 L17.8681351,20.957514 C17.8300317,20.9980136 17.796162,20.9992792 17.757353,20.9577671 L11.0626825,13.7531471 L12.783215,11.9015574 L19.4778855,19.1064306 C19.496702,19.1264273 19.5007005,19.1497145 19.5007005,19.1654081 C19.5009357,19.1813548 19.4969372,19.2046421 19.4778855,19.225145 Z" id="Shape"></path>
                            <rect id="Rectangle-path" transform="translate(14.828673, 15.121208) rotate(-45.000000) translate(-14.828673, -15.121208) " x="14.328673" y="12.0146677" width="1" height="6.2130804"></rect>
                            <rect id="Rectangle-path" transform="translate(17.699248, 18.243055) rotate(-135.000000) translate(-17.699248, -18.243055) " x="17.0630214" y="17.7430549" width="1.27245266" height="1"></rect>
                        </g>
                    </g>
                </g>
            </g>
        </g>
    </g>
</svg>