<?xml version="1.0" encoding="UTF-8"?>
<svg width="81px" height="80px" viewBox="0 0 81 80" version="1.1" xmlns="http://www.w3.org/2000/svg" xmlns:xlink="http://www.w3.org/1999/xlink">
    <!-- Generator: Sketch 48.2 (47327) - http://www.bohemiancoding.com/sketch -->
    <title>share</title>
    <desc>Created with Sketch.</desc>
    <defs></defs>
    <g id="Artboard" stroke="none" stroke-width="1" fill="none" fill-rule="evenodd" transform="translate(-241.000000, -589.000000)">
        <g id="share" transform="translate(241.000000, 589.000000)" fill-rule="nonzero">
            <path d="M28.32,29.58 C27.615,31.693 27.997,33.85 29.385,35.238 C30.313,36.166 31.565,36.658 32.966,36.658 C33.198,36.658 33.435,36.644 33.674,36.617 C34.134,36.564 34.588,36.449 35.036,36.3 C36.032,38.294 37.827,39.548 39.789,39.548 C41.798,39.548 43.556,38.247 44.533,36.308 C45.224,36.538 45.919,36.654 46.591,36.654 C47.975,36.654 49.258,36.172 50.193,35.238 C51.615,33.817 51.937,31.651 51.255,29.587 C53.248,28.591 54.503,26.796 54.503,24.834 C54.503,22.824 53.2,21.064 51.258,20.087 C51.963,17.972 51.58,15.816 50.193,14.43 C48.772,13.009 46.606,12.687 44.542,13.369 C43.545,11.375 41.75,10.12 39.788,10.12 C37.777,10.12 36.018,11.423 35.041,13.365 C32.926,12.661 30.77,13.043 29.383,14.431 C27.961,15.852 27.639,18.018 28.321,20.081 C26.328,21.078 25.074,22.873 25.074,24.835 C25.075,26.845 26.379,28.604 28.32,29.58 Z M33.447,34.63 C32.38,34.752 31.44,34.466 30.799,33.824 C29.959,32.983 29.747,31.616 30.206,30.228 C30.721,30.333 31.257,30.394 31.811,30.394 C33.488,30.394 35.34,29.533 36.765,28.679 C37.233,29.048 37.765,29.328 38.348,29.508 C37.918,31.089 37.324,32.335 36.667,32.992 C35.742,33.917 34.599,34.499 33.447,34.63 Z M39.79,21.918 C41.398,21.918 42.706,23.227 42.706,24.834 C42.706,26.441 41.398,27.75 39.79,27.75 C38.182,27.75 36.873,26.441 36.873,24.834 C36.873,23.227 38.181,21.918 39.79,21.918 Z M39.79,37.548 C38.599,37.548 37.481,36.726 36.824,35.415 C37.266,35.121 37.693,34.795 38.081,34.407 C39.266,33.222 39.967,31.303 40.371,29.691 C40.983,29.618 41.555,29.436 42.077,29.159 C42.891,30.58 43.352,31.88 43.352,32.811 C43.351,35.423 41.753,37.548 39.79,37.548 Z M48.78,33.824 C47.941,34.665 46.574,34.876 45.185,34.417 C45.29,33.901 45.351,33.366 45.351,32.812 C45.351,31.134 44.49,29.284 43.636,27.859 C44.005,27.391 44.285,26.858 44.466,26.276 C46.046,26.705 47.292,27.3 47.95,27.957 C49.795,29.804 50.168,32.436 48.78,33.824 Z M52.503,24.834 C52.503,26.022 51.686,27.138 50.38,27.796 C50.089,27.357 49.754,26.935 49.362,26.543 C48.176,25.357 46.257,24.657 44.646,24.253 C44.573,23.642 44.391,23.07 44.114,22.548 C45.536,21.734 46.837,21.273 47.767,21.273 C50.379,21.272 52.503,22.87 52.503,24.834 Z M48.78,15.844 C49.62,16.684 49.831,18.05 49.373,19.439 C48.857,19.334 48.322,19.273 47.768,19.273 C46.092,19.273 44.24,20.135 42.815,20.989 C42.347,20.62 41.814,20.34 41.232,20.159 C41.662,18.578 42.257,17.332 42.914,16.674 C44.759,14.828 47.392,14.455 48.78,15.844 Z M39.79,12.119 C40.978,12.119 42.094,12.936 42.752,14.243 C42.313,14.533 41.891,14.868 41.499,15.26 C40.313,16.446 39.613,18.365 39.209,19.977 C38.598,20.05 38.025,20.232 37.504,20.509 C36.69,19.087 36.229,17.786 36.229,16.856 C36.228,14.244 37.826,12.119 39.79,12.119 Z M30.799,15.844 C31.639,15.003 33.006,14.792 34.394,15.25 C34.289,15.766 34.228,16.301 34.228,16.855 C34.228,18.532 35.089,20.383 35.943,21.809 C35.574,22.277 35.294,22.809 35.114,23.391 C33.533,22.962 32.287,22.367 31.63,21.71 C29.783,19.864 29.411,17.232 30.799,15.844 Z M29.198,21.872 C29.489,22.311 29.824,22.733 30.216,23.125 C31.402,24.311 33.32,25.011 34.932,25.414 C35.005,26.026 35.187,26.598 35.464,27.12 C34.042,27.934 32.741,28.394 31.811,28.394 C29.2,28.394 27.075,26.796 27.075,24.833 C27.075,23.646 27.892,22.53 29.198,21.872 Z" id="Shape" fill="#E0AFA1"></path>
            <path d="M69.213,5.5 L10.806,5.5 C10.254,5.5 9.806,5.947 9.806,6.5 L9.806,43.167 C9.806,43.72 10.254,44.167 10.806,44.167 L69.214,44.167 C69.766,44.167 70.214,43.72 70.214,43.167 L70.214,6.5 C70.213,5.947 69.766,5.5 69.213,5.5 Z M68.213,42.167 L11.806,42.167 L11.806,7.5 L68.214,7.5 L68.214,42.167 L68.213,42.167 Z" id="Shape" fill="#ECCFC1"></path>
            <path d="M75.276,48.459 L75.276,5.276 C75.276,2.367 72.885,0 69.947,0 L10.072,0 C7.134,0 4.743,2.367 4.743,5.276 L4.743,48.462 L0.1,76.159 C-0.054,77.113 0.217,78.084 0.846,78.822 C1.482,79.57 2.414,80 3.402,80 L76.849,80 C77.842,80 78.776,79.567 79.413,78.812 C80.042,78.068 80.309,77.091 80.145,76.128 L75.276,48.459 Z M6.743,5.276 C6.743,3.469 8.237,2 10.072,2 L69.947,2 C71.782,2 73.276,3.47 73.276,5.276 L73.276,47.546 L6.743,47.546 L6.743,5.276 Z M77.885,77.522 C77.629,77.826 77.251,78 76.849,78 L3.402,78 C3.002,78 2.625,77.827 2.368,77.526 C2.117,77.23 2.013,76.859 2.073,76.484 L6.589,49.546 L73.437,49.546 L78.175,76.469 C78.239,76.851 78.137,77.225 77.885,77.522 Z" id="Shape" fill="#CCC6BE"></path>
            <path d="M69.213,54.273 L10.806,54.273 C10.301,54.273 9.875,54.65 9.813,55.151 L7.717,72.151 C7.682,72.435 7.771,72.721 7.961,72.935 C8.151,73.15 8.423,73.273 8.71,73.273 L71.478,73.273 C71.766,73.273 72.04,73.149 72.23,72.932 C72.42,72.715 72.507,72.426 72.469,72.141 L70.204,55.141 C70.139,54.645 69.715,54.273 69.213,54.273 Z M69.204,62.773 L55.656,62.773 L55.019,56.273 L68.338,56.273 L69.204,62.773 Z M39.094,64.773 L39.094,71.273 L25.149,71.273 L25.785,64.773 L39.094,64.773 Z M25.981,62.773 L26.617,56.273 L39.093,56.273 L39.093,62.773 L25.981,62.773 Z M41.094,64.773 L53.843,64.773 L54.48,71.273 L41.094,71.273 L41.094,64.773 Z M41.094,62.773 L41.094,56.273 L53.01,56.273 L53.647,62.773 L41.094,62.773 Z M24.608,56.273 L23.972,62.773 L10.889,62.773 L11.69,56.273 L24.608,56.273 Z M10.642,64.773 L23.776,64.773 L23.14,71.273 L9.841,71.273 L10.642,64.773 Z M56.488,71.273 L55.851,64.773 L69.47,64.773 L70.336,71.273 L56.488,71.273 Z" id="Shape" fill="#CCC6BE"></path>
        </g>
    </g>
</svg>